<svg width="2231" height="388" viewBox="0 0 2231 388" fill="none" xmlns="http://www.w3.org/2000/svg">
<path d="M161.68 111.521V261.929H132.407V153.78L81.6328 216.37H80.3555L29.4746 153.78V261.929H0.308594V111.521H32.5615L80.9941 171.024L129.32 111.521H161.68Z" fill="white"/>
<path d="M248.646 263.632C237.078 263.632 226.824 261.113 217.883 256.074C208.941 251.036 201.916 243.975 196.807 234.892C191.697 225.808 189.143 215.554 189.143 204.129C189.143 192.562 191.697 182.272 196.807 173.26C201.987 164.105 209.012 157.08 217.883 152.184C226.966 147.145 237.22 144.626 248.646 144.626C260.213 144.626 270.502 147.181 279.515 152.29C288.669 157.47 295.73 164.531 300.697 173.473C305.665 182.485 308.148 192.704 308.148 204.129C308.148 215.767 305.665 226.092 300.697 235.104C295.73 244.188 288.704 251.213 279.621 256.181C270.609 261.148 260.284 263.632 248.646 263.632ZM271.105 227.973C276.924 221.941 279.834 213.993 279.834 204.129C279.834 194.336 276.924 186.424 271.105 180.392C265.215 174.289 257.729 171.237 248.646 171.237C239.562 171.237 232.076 174.289 226.186 180.392C220.367 186.424 217.457 194.336 217.457 204.129C217.457 213.993 220.367 221.941 226.186 227.973C232.076 234.076 239.562 237.127 248.646 237.127C257.729 237.127 265.215 234.076 271.105 227.973Z" fill="white"/>
<path d="M429.603 158.464C437.834 167.618 441.95 180.072 441.95 195.826V261.929H413.636V198.913C413.636 189.901 411.613 183.053 407.568 178.369C403.452 173.615 397.704 171.237 390.324 171.237C381.809 171.237 374.996 174.324 369.887 180.498C364.777 186.672 362.223 195.72 362.223 207.642V261.929H333.908V146.436H359.136L362.01 160.38C370.383 149.877 381.702 144.626 395.966 144.626C410.088 144.626 421.3 149.239 429.603 158.464Z" fill="white"/>
<path d="M550.099 255.648C540.377 260.971 529.697 263.632 518.059 263.632C505.285 263.632 495.315 260.19 488.147 253.307C480.909 246.423 477.29 237.021 477.29 225.099V171.45H458.769V146.436H477.29V113.012H505.604V146.436H546.799V171.45H505.604V220.947C505.604 231.734 510.856 237.127 521.358 237.127C527.745 237.127 534.203 235.353 540.731 231.805L550.099 255.648Z" fill="white"/>
<path d="M672.83 214.88H590.654C592.641 222.473 596.438 228.54 602.044 233.082C607.508 237.482 614.179 239.682 622.056 239.682C626.881 239.682 631.849 238.617 636.958 236.488C642.138 234.359 646.645 231.521 650.477 227.973L666.124 246.707C660.305 252.171 653.67 256.358 646.219 259.268C638.697 262.177 630.642 263.632 622.056 263.632C610.276 263.632 599.88 261.113 590.867 256.074C581.784 251.036 574.688 243.975 569.578 234.892C564.469 225.808 561.914 215.554 561.914 204.129C561.914 192.633 564.327 182.343 569.152 173.26C573.978 164.176 580.648 157.151 589.164 152.184C597.822 147.145 607.544 144.626 618.33 144.626C629.188 144.626 638.803 147.074 647.177 151.971C655.692 156.938 662.257 163.68 666.869 172.195C671.624 180.924 674.001 190.788 674.001 201.787C674.001 205.477 673.611 209.841 672.83 214.88ZM618.33 168.576C611.376 168.576 605.379 170.776 600.341 175.176C595.302 179.576 592.003 185.465 590.441 192.846H645.793C644.658 185.465 641.606 179.576 636.639 175.176C631.671 170.776 625.568 168.576 618.33 168.576Z" fill="white"/>
<path d="M702.848 229.25C707.318 232.727 711.966 235.317 716.792 237.021C721.83 238.795 727.011 239.682 732.333 239.682C737.868 239.682 742.055 238.866 744.894 237.233C747.874 235.53 749.364 233.082 749.364 229.889C749.364 226.553 747.768 223.928 744.574 222.012C741.665 220.238 736.555 218.144 729.246 215.731C722.434 213.461 716.295 210.977 710.831 208.28C705.935 205.868 701.748 202.319 698.271 197.636C694.793 193.023 693.055 186.991 693.055 179.54C693.055 169.25 697.029 160.841 704.977 154.312C712.783 147.855 723.143 144.626 736.059 144.626C751.174 144.626 764.692 148.99 776.614 157.719L762.67 178.901C753.87 172.018 744.858 168.576 735.633 168.576C731.091 168.576 727.578 169.392 725.095 171.024C722.611 172.657 721.369 174.821 721.369 177.518C721.369 180.569 722.859 182.946 725.84 184.649C728.749 186.282 733.681 188.198 740.636 190.397C748.797 193.236 755.077 195.755 759.477 197.955C764.515 200.439 768.773 204.058 772.25 208.812C775.869 213.709 777.679 219.989 777.679 227.653C777.679 234.75 775.763 241.03 771.931 246.494C768.241 251.674 762.847 255.861 755.751 259.055C748.938 262.106 740.92 263.632 731.694 263.632C724.03 263.632 716.579 262.674 709.341 260.758C702.386 258.913 696.035 256.11 690.287 252.349L702.848 229.25Z" fill="white"/>
<path d="M806.738 229.25C811.209 232.727 815.857 235.317 820.683 237.021C825.721 238.795 830.901 239.682 836.224 239.682C841.759 239.682 845.946 238.866 848.784 237.233C851.765 235.53 853.255 233.082 853.255 229.889C853.255 226.553 851.658 223.928 848.465 222.012C845.555 220.238 840.446 218.144 833.137 215.731C826.324 213.461 820.186 210.977 814.722 208.28C809.825 205.868 805.638 202.319 802.161 197.636C798.684 193.023 796.945 186.991 796.945 179.54C796.945 169.25 800.919 160.841 808.867 154.312C816.673 147.855 827.034 144.626 839.949 144.626C855.064 144.626 868.583 148.99 880.505 157.719L866.561 178.901C857.761 172.018 848.749 168.576 839.523 168.576C834.982 168.576 831.469 169.392 828.985 171.024C826.502 172.657 825.26 174.821 825.26 177.518C825.26 180.569 826.75 182.946 829.73 184.649C832.64 186.282 837.572 188.198 844.526 190.397C852.687 193.236 858.967 195.755 863.367 197.955C868.406 200.439 872.663 204.058 876.141 208.812C879.76 213.709 881.569 219.989 881.569 227.653C881.569 234.75 879.653 241.03 875.821 246.494C872.131 251.674 866.738 255.861 859.642 259.055C852.829 262.106 844.81 263.632 835.585 263.632C827.921 263.632 820.47 262.674 813.231 260.758C806.277 258.913 799.926 256.11 794.178 252.349L806.738 229.25Z" fill="white"/>
<path d="M959.487 263.632C947.92 263.632 937.666 261.113 928.725 256.074C919.783 251.036 912.758 243.975 907.648 234.892C902.539 225.808 899.984 215.554 899.984 204.129C899.984 192.562 902.539 182.272 907.648 173.26C912.829 164.105 919.854 157.08 928.725 152.184C937.808 147.145 948.062 144.626 959.487 144.626C971.054 144.626 981.344 147.181 990.356 152.29C999.511 157.47 1006.57 164.531 1011.54 173.473C1016.51 182.485 1018.99 192.704 1018.99 204.129C1018.99 215.767 1016.51 226.092 1011.54 235.104C1006.57 244.188 999.546 251.213 990.463 256.181C981.451 261.148 971.125 263.632 959.487 263.632ZM981.947 227.973C987.766 221.941 990.676 213.993 990.676 204.129C990.676 194.336 987.766 186.424 981.947 180.392C976.057 174.289 968.571 171.237 959.487 171.237C950.404 171.237 942.917 174.289 937.027 180.392C931.208 186.424 928.299 194.336 928.299 204.129C928.299 213.993 931.208 221.941 937.027 227.973C942.917 234.076 950.404 237.127 959.487 237.127C968.571 237.127 976.057 234.076 981.947 227.973Z" fill="white"/>
<path d="M1112.77 145.478V175.176C1108.44 173.686 1103.61 172.94 1098.29 172.94C1090.84 172.94 1084.74 175.318 1079.98 180.072C1075.37 184.685 1073.06 191.568 1073.06 200.723V261.929H1044.75V146.436H1069.98L1072.43 158.783C1076.9 153.887 1081.62 150.303 1086.58 148.032C1091.55 145.761 1096.91 144.626 1102.66 144.626C1106.35 144.626 1109.72 144.91 1112.77 145.478Z" fill="white"/>
<path d="M1162.27 146.436V261.929H1133.95V146.436H1162.27ZM1134.7 124.827C1131.29 121.279 1129.59 116.844 1129.59 111.521C1129.59 105.986 1131.29 101.516 1134.7 98.1094C1138.1 94.7031 1142.57 93 1148.11 93C1153.43 93 1157.87 94.7031 1161.41 98.1094C1164.89 101.516 1166.63 105.986 1166.63 111.521C1166.63 116.915 1164.89 121.35 1161.41 124.827C1157.94 128.304 1153.5 130.043 1148.11 130.043C1142.57 130.043 1138.1 128.304 1134.7 124.827Z" fill="white"/>
<path d="M1624.31 110.222H1687.54C1699.32 110.222 1709.43 112.315 1717.87 116.502C1726.32 120.689 1732.92 126.756 1737.67 134.704C1742.36 142.581 1744.7 151.842 1744.7 162.486C1744.7 173.202 1742.36 182.498 1737.67 190.375C1732.92 198.394 1726.32 204.497 1717.87 208.684C1709.29 212.941 1699.18 215.07 1687.54 215.07H1653.79V260.629H1624.31V110.222ZM1684.88 187.182C1694.39 187.182 1701.84 184.982 1707.23 180.582C1712.55 176.182 1715.21 170.15 1715.21 162.486C1715.21 154.68 1712.55 148.648 1707.23 144.391C1701.98 140.204 1694.53 138.11 1684.88 138.11H1653.79V187.182H1684.88Z" fill="white"/>
<path d="M1819 262.332C1807.43 262.332 1797.18 259.813 1788.23 254.774C1779.29 249.736 1772.27 242.675 1767.16 233.592C1762.05 224.508 1759.49 214.254 1759.49 202.829C1759.49 191.262 1762.05 180.972 1767.16 171.96C1772.34 162.806 1779.36 155.78 1788.23 150.884C1797.32 145.845 1807.57 143.326 1819 143.326C1830.56 143.326 1840.85 145.881 1849.87 150.99C1859.02 156.171 1866.08 163.231 1871.05 172.173C1876.02 181.185 1878.5 191.404 1878.5 202.829C1878.5 214.467 1876.02 224.792 1871.05 233.805C1866.08 242.888 1859.06 249.913 1849.97 254.881C1840.96 259.848 1830.64 262.332 1819 262.332ZM1841.46 226.673C1847.28 220.641 1850.19 212.693 1850.19 202.829C1850.19 193.036 1847.28 185.124 1841.46 179.092C1835.57 172.989 1828.08 169.938 1819 169.938C1809.91 169.938 1802.43 172.989 1796.54 179.092C1790.72 185.124 1787.81 193.036 1787.81 202.829C1787.81 212.693 1790.72 220.641 1796.54 226.673C1802.43 232.776 1809.91 235.827 1819 235.827C1828.08 235.827 1835.57 232.776 1841.46 226.673Z" fill="white"/>
<path d="M1943.64 214.645H1932.57V260.629H1904.26V95H1932.57V189.311H1942.58L1978.77 145.136H2015.6L1968.34 201.339L2020.18 260.629H1982.28L1943.64 214.645Z" fill="white"/>
<path d="M2135.67 213.58H2053.5C2055.48 221.173 2059.28 227.241 2064.89 231.782C2070.35 236.182 2077.02 238.382 2084.9 238.382C2089.72 238.382 2094.69 237.317 2099.8 235.188C2104.98 233.06 2109.49 230.221 2113.32 226.673L2128.97 245.407C2123.15 250.871 2116.51 255.058 2109.06 257.968C2101.54 260.877 2093.48 262.332 2084.9 262.332C2073.12 262.332 2062.72 259.813 2053.71 254.774C2044.63 249.736 2037.53 242.675 2032.42 233.592C2027.31 224.508 2024.76 214.254 2024.76 202.829C2024.76 191.333 2027.17 181.043 2031.99 171.96C2036.82 162.877 2043.49 155.851 2052.01 150.884C2060.66 145.845 2070.39 143.326 2081.17 143.326C2092.03 143.326 2101.64 145.774 2110.02 150.671C2118.53 155.638 2125.1 162.38 2129.71 170.896C2134.47 179.624 2136.84 189.488 2136.84 200.487C2136.84 204.177 2136.45 208.542 2135.67 213.58ZM2081.17 167.276C2074.22 167.276 2068.22 169.476 2063.18 173.876C2058.14 178.276 2054.84 184.166 2053.28 191.546H2108.63C2107.5 184.166 2104.45 178.276 2099.48 173.876C2094.51 169.476 2088.41 167.276 2081.17 167.276Z" fill="white"/>
<path d="M2230.51 144.178V173.876C2226.19 172.386 2221.36 171.641 2216.04 171.641C2208.59 171.641 2202.48 174.018 2197.73 178.772C2193.12 183.385 2190.81 190.269 2190.81 199.423V260.629H2162.5V145.136H2187.72L2190.17 157.483C2194.64 152.587 2199.36 149.003 2204.33 146.732C2209.3 144.462 2214.65 143.326 2220.4 143.326C2224.09 143.326 2227.46 143.61 2230.51 144.178Z" fill="white"/>
<path d="M1572.09 264.048L1528.5 160.97V49.3365C1528.5 35.0767 1516.68 23.2611 1502.42 23.2611H1470.23L1466.97 15.9282C1461.27 2.89135 1446.2 -3.62877 1432.75 2.07548L1383.05 23.2608H1328.86C1314.6 23.2608 1302.78 35.0763 1302.78 49.3361V57.4846L1273.04 70.1143C1260 75.8186 1253.48 90.8925 1259.19 104.338L1302.78 207.416V215.564C1299.11 215.157 1295.45 214.75 1291.37 214.75C1243.71 214.75 1205 253.455 1205 301.123C1205 348.792 1243.71 387.497 1291.37 387.497C1321.12 387.497 1347.19 372.423 1363.08 349.607L1364.3 352.458C1368.38 362.236 1378.16 368.348 1388.34 368.348C1391.6 368.348 1395.27 367.533 1398.53 366.311L1448.64 345.125H1502.83C1517.09 345.125 1528.9 333.31 1528.9 319.05V310.902L1558.64 298.272C1571.27 292.569 1577.39 277.087 1572.09 264.048L1572.09 264.048ZM1436.83 11.0388C1438.86 10.2245 1440.9 9.81596 1443.34 9.81596C1449.86 9.81596 1455.57 13.4831 1458.42 19.5944L1460.05 23.2616H1407.9L1436.83 11.0388ZM1268.15 99.8568C1264.49 91.7084 1268.56 81.9299 1276.71 78.6715L1302.78 67.6718V182.157L1268.15 99.8568ZM1291.38 223.713C1301.97 223.713 1311.75 225.75 1320.71 229.417L1314.6 244.491C1307.67 241.64 1299.52 240.01 1291.38 240.01V223.713ZM1262.45 229.825L1268.56 244.898C1261.23 248.158 1254.71 252.233 1249 257.935L1237.19 246.528C1244.52 239.194 1253.08 233.491 1262.45 229.824L1262.45 229.825ZM1220.89 271.382L1235.97 277.493C1233.11 284.418 1231.49 292.567 1231.49 300.715H1215.19C1214.78 290.123 1216.82 280.346 1220.89 271.382ZM1237.19 354.903C1230.26 347.978 1224.56 339.42 1220.49 330.051L1235.56 323.939C1238.82 331.274 1243.3 337.792 1248.6 343.496L1237.19 354.903ZM1291.38 377.311C1281.19 377.311 1271.01 375.274 1262.04 371.607L1268.15 356.533C1275.08 359.385 1283.23 361.014 1291.38 361.014V377.311ZM1240.86 300.716C1240.86 272.604 1263.67 250.196 1291.38 250.196C1319.49 250.196 1341.9 273.011 1341.9 300.716C1341.9 328.828 1319.08 351.236 1291.38 351.236C1263.67 351.235 1240.86 328.42 1240.86 300.716ZM1334.16 257.937L1345.56 246.528C1352.49 253.454 1358.19 262.011 1362.27 271.381L1347.19 277.492C1344.34 270.159 1339.86 263.639 1334.16 257.936L1334.16 257.937ZM1321.12 371.607L1314.6 356.534C1321.93 353.274 1328.45 349.199 1334.16 343.497L1345.56 354.905C1338.64 361.831 1330.49 367.534 1321.12 371.608L1321.12 371.607ZM1347.19 323.532C1350.04 316.606 1351.67 308.458 1351.67 300.309H1367.97C1367.97 310.495 1365.93 320.68 1362.27 329.643L1347.19 323.532ZM1394.45 356.94C1386.31 360.2 1376.53 356.532 1373.27 348.384L1371.64 344.717H1423.38L1394.45 356.94ZM1518.72 318.642C1518.72 327.605 1511.38 334.939 1502.42 334.939H1370.82C1375.3 324.346 1377.75 312.938 1377.75 300.715C1377.75 260.381 1349.64 226.157 1312.15 216.786V49.3358C1312.15 40.3732 1319.49 33.0389 1328.45 33.0389H1502.01C1510.98 33.0389 1518.31 40.3732 1518.31 49.3358V318.642H1518.72ZM1554.57 289.308L1528.5 300.308V186.23L1563.13 268.122C1566.39 275.863 1562.72 285.641 1554.57 289.308Z" fill="#E5E5E5"/>
<path d="M1418.9 131.636C1417.27 130.006 1414.42 130.006 1412.38 131.636L1373.67 170.341C1363.49 180.527 1363.49 197.638 1373.67 207.824C1378.97 213.121 1385.49 215.565 1392.42 215.565C1397.3 215.565 1402.19 214.343 1406.68 211.491L1396.9 233.492C1396.08 235.529 1397.3 237.567 1399.75 237.567H1431.53C1433.57 237.567 1435.2 235.529 1434.38 233.492L1424.6 211.491C1429.08 214.343 1433.97 215.565 1438.86 215.565C1445.79 215.565 1452.71 212.714 1458.01 207.417C1467.79 196.824 1467.38 180.12 1457.19 169.934L1418.9 131.636Z" fill="#E5E5E5"/>
<path d="M1345.16 46.4846C1344.75 46.0774 1343.53 46.0774 1343.12 46.4846L1330.08 59.5214C1326.82 63.1885 1326.82 68.8928 1330.08 72.1511C1331.71 73.7811 1334.16 74.5954 1336.6 74.5954C1338.23 74.5954 1339.86 74.1883 1341.49 73.3726L1338.23 80.7069C1337.82 81.5212 1338.23 81.9297 1339.04 81.9297H1349.63C1350.45 81.9297 1350.86 81.1154 1350.45 80.7069L1347.19 73.3726C1348.82 74.1869 1350.45 75.0026 1352.08 75.0026C1354.52 75.0026 1356.97 74.1883 1358.6 72.1511C1361.86 68.484 1361.86 63.1885 1358.19 59.5214L1345.16 46.4846Z" fill="#E5E5E5"/>
<path d="M1495.09 292.975C1493.46 292.975 1491.83 293.382 1490.2 294.198L1493.46 286.863C1493.87 286.049 1493.46 285.641 1492.64 285.641H1482.05C1481.24 285.641 1480.83 286.455 1481.24 286.863L1484.5 294.198C1482.87 293.383 1481.24 292.568 1479.61 292.568C1477.16 292.568 1474.72 293.382 1473.09 295.419C1469.83 299.086 1469.83 304.382 1473.5 308.049L1486.53 321.086C1486.94 321.493 1488.16 321.493 1488.57 321.086L1501.61 308.049C1505.28 304.382 1505.28 298.678 1501.61 295.419C1499.57 293.789 1497.12 292.975 1495.09 292.975Z" fill="#E5E5E5"/>
<path d="M1294.23 295.419H1288.52C1284.04 295.419 1280.78 291.752 1281.19 287.271C1281.6 283.604 1285.26 280.752 1288.93 280.752H1295.86C1298.3 280.752 1300.34 282.382 1300.75 284.826C1300.75 285.641 1301.56 286.049 1301.97 286.049H1309.3C1310.12 286.049 1310.93 285.235 1310.93 284.419C1310.12 277.085 1304.01 270.974 1296.27 270.567L1296.26 262.825C1296.26 262.011 1295.45 261.195 1294.63 261.195H1287.71C1286.89 261.195 1286.08 262.01 1286.08 262.825V270.16C1276.71 271.382 1269.78 279.938 1270.6 289.717C1271.41 299.088 1279.97 305.606 1288.93 305.606H1293.82C1298.3 305.606 1301.56 309.273 1301.15 313.755C1300.75 317.422 1297.08 320.273 1293.41 320.273H1286.89C1284.45 320.273 1282.41 318.643 1282 316.199C1282 315.385 1281.19 314.976 1280.78 314.976H1273.45C1272.63 314.976 1271.82 315.79 1271.82 316.606C1272.63 323.94 1278.74 330.052 1286.48 330.459V337.793C1286.48 338.607 1287.3 339.423 1288.11 339.423H1295.45C1296.26 339.423 1297.08 338.609 1297.08 337.793V330.052C1305.23 328.829 1311.75 322.31 1312.56 314.162C1312.97 304.382 1304.82 295.419 1294.23 295.419Z" fill="#E5E5E5"/>
</svg>
