<svg width="1648" height="432" viewBox="0 0 1648 432" fill="none" xmlns="http://www.w3.org/2000/svg">
<path d="M408.872 294.102L360.316 179.292V54.952C360.316 39.0692 347.155 25.9087 331.272 25.9087H295.422L291.793 17.7411C285.439 3.22045 268.65 -4.0418 253.674 2.31172L198.311 25.9083H137.956C122.073 25.9083 108.913 39.0688 108.913 54.9516V64.0275L75.785 78.0948C61.2643 84.4483 54.002 101.238 60.3556 116.214L108.912 231.024V240.1C104.827 239.646 100.743 239.193 96.2047 239.193C43.1106 239.193 0 282.303 0 335.397C0 388.492 43.1106 431.602 96.2047 431.602C129.332 431.602 158.375 414.812 176.073 389.399L177.435 392.575C181.973 403.467 192.864 410.273 204.209 410.273C207.84 410.273 211.923 409.366 215.554 408.005L271.371 384.408H331.726C347.608 384.408 360.769 371.247 360.769 355.365V346.289L393.897 332.221C407.964 325.869 414.771 308.625 408.873 294.103L408.872 294.102ZM258.212 12.2952C260.481 11.3882 262.75 10.9332 265.472 10.9332C272.732 10.9332 279.086 15.0178 282.262 21.8247L284.077 25.9092H225.991L258.212 12.2952ZM70.3405 111.223C66.2559 102.147 70.794 91.2553 79.8698 87.626L108.913 75.3743V202.891L70.3405 111.223ZM96.2076 249.176C108.006 249.176 118.897 251.445 128.88 255.53L122.073 272.32C114.359 269.144 105.283 267.328 96.2076 267.328V249.176ZM63.9885 255.983L70.7954 272.773C62.6263 276.404 55.366 280.942 49.0124 287.294L35.852 274.588C44.0211 266.419 53.5504 260.068 63.9881 255.983L63.9885 255.983ZM17.7013 302.271L34.491 309.077C31.315 316.791 29.4996 325.867 29.4996 334.943H11.3478C10.8943 323.145 13.1633 312.255 17.7013 302.271ZM35.8531 395.299C28.1394 387.585 21.7859 378.054 17.2479 367.617L34.0376 360.811C37.6685 368.98 42.6601 376.24 48.5583 382.594L35.8531 395.299ZM96.2079 420.257C84.8631 420.257 73.5182 417.988 63.5354 413.904L70.3423 397.114C78.0561 400.29 87.132 402.106 96.2079 402.106V420.257ZM39.9373 334.944C39.9373 303.632 65.3495 278.673 96.2079 278.673C127.52 278.673 152.479 304.085 152.479 334.944C152.479 366.256 127.066 391.214 96.2079 391.214C65.3491 391.213 39.9373 365.801 39.9373 334.944ZM143.856 287.295L156.563 274.588C164.277 282.302 170.631 291.833 175.169 302.269L158.379 309.076C155.202 300.909 150.21 293.647 143.857 287.295L143.856 287.295ZM129.334 413.904L122.074 397.115C130.243 393.484 137.503 388.945 143.857 382.594L156.564 395.301C148.849 403.015 139.773 409.367 129.335 413.905L129.334 413.904ZM158.378 360.356C161.554 352.643 163.369 343.567 163.369 334.491H181.521C181.521 345.836 179.252 357.181 175.167 367.163L158.378 360.356ZM211.018 397.567C201.942 401.198 191.05 397.113 187.421 388.038L185.606 383.953H243.238L211.018 397.567ZM349.425 354.91C349.425 364.893 341.256 373.062 331.274 373.062H184.698C189.689 361.264 192.411 348.557 192.411 334.943C192.411 290.017 161.099 251.898 119.35 241.461V54.9512C119.35 44.9685 127.519 36.7994 137.502 36.7994H330.819C340.802 36.7994 348.971 44.9685 348.971 54.9512V354.91H349.425ZM389.359 322.238L360.316 334.489V207.427L398.889 298.639C402.52 307.262 398.435 318.153 389.359 322.238Z" fill="#E5E5E5"/>
<path d="M238.245 146.619C236.429 144.803 233.253 144.803 230.984 146.619L187.874 189.729C176.529 201.074 176.529 220.133 187.874 231.479C193.774 237.379 201.034 240.101 208.748 240.101C214.193 240.101 219.639 238.739 224.631 235.563L213.739 260.069C212.832 262.338 214.193 264.607 216.915 264.607H252.312C254.581 264.607 256.397 262.338 255.488 260.069L244.597 235.563C249.588 238.739 255.035 240.101 260.479 240.101C268.193 240.101 275.909 236.925 281.807 231.025C292.698 219.227 292.245 200.622 280.9 189.276L238.245 146.619Z" fill="#E5E5E5"/>
<path d="M156.108 51.7757C155.655 51.3222 154.293 51.3222 153.839 51.7757L139.318 66.2964C135.687 70.3809 135.687 76.7344 139.318 80.3636C141.134 82.1791 143.856 83.0861 146.579 83.0861C148.394 83.0861 150.21 82.6326 152.023 81.7241L148.392 89.8932C147.939 90.8002 148.392 91.2552 149.299 91.2552H161.098C162.005 91.2552 162.46 90.3482 162.005 89.8932L158.374 81.7241C160.189 82.6311 162.005 83.5396 163.819 83.5396C166.541 83.5396 169.263 82.6326 171.079 80.3636C174.71 76.2791 174.71 70.3809 170.625 66.2964L156.108 51.7757Z" fill="#E5E5E5"/>
<path d="M323.105 326.321C321.289 326.321 319.474 326.775 317.66 327.683L321.291 319.514C321.744 318.607 321.291 318.152 320.384 318.152H308.586C307.679 318.152 307.224 319.059 307.679 319.514L311.31 327.683C309.494 326.776 307.679 325.868 305.865 325.868C303.142 325.868 300.42 326.775 298.604 329.044C294.973 333.128 294.973 339.027 299.058 343.111L313.579 357.632C314.032 358.085 315.394 358.085 315.848 357.632L330.368 343.111C334.453 339.027 334.453 332.673 330.368 329.044C328.096 327.228 325.374 326.321 323.105 326.321Z" fill="#E5E5E5"/>
<path d="M99.3834 329.044H93.0298C88.0385 329.044 84.4073 324.959 84.8608 319.968C85.3143 315.884 89.3987 312.708 93.4833 312.708H101.199C103.921 312.708 106.19 314.523 106.643 317.246C106.643 318.153 107.55 318.608 108.005 318.608H116.174C117.081 318.608 117.99 317.701 117.99 316.792C117.083 308.623 110.276 301.816 101.654 301.363L101.652 292.74C101.652 291.833 100.745 290.925 99.8366 290.925H92.1229C91.2159 290.925 90.3074 291.832 90.3074 292.74V300.909C79.8693 302.271 72.1556 311.801 73.0624 322.692C73.9694 333.13 83.5005 340.391 93.4832 340.391H98.928C103.919 340.391 107.55 344.475 107.097 349.467C106.644 353.551 102.559 356.727 98.4746 356.727H91.2142C88.4918 356.727 86.2229 354.911 85.7694 352.189C85.7694 351.282 84.8625 350.827 84.4075 350.827H76.2384C75.3314 350.827 74.4229 351.734 74.4229 352.643C75.3299 360.812 82.1367 367.619 90.7592 368.072V376.241C90.7592 377.148 91.6661 378.057 92.5746 378.057H100.744C101.651 378.057 102.559 377.15 102.559 376.241V367.619C111.635 366.257 118.895 358.996 119.804 349.92C120.258 339.027 111.182 329.044 99.3834 329.044Z" fill="#E5E5E5"/>
<path d="M642.371 41.5215V191.929H613.099V83.7803L562.324 146.37H561.047L510.166 83.7803V191.929H481V41.5215H513.253L561.686 101.024L610.012 41.5215H642.371Z" fill="#EC6276"/>
<path d="M729.337 193.632C717.77 193.632 707.516 191.113 698.574 186.074C689.633 181.036 682.607 173.975 677.498 164.892C672.389 155.808 669.834 145.554 669.834 134.129C669.834 122.562 672.389 112.272 677.498 103.26C682.678 94.1055 689.704 87.0801 698.574 82.1836C707.658 77.1452 717.912 74.626 729.337 74.626C740.904 74.626 751.194 77.1807 760.206 82.29C769.36 87.4704 776.421 94.5312 781.389 103.473C786.356 112.485 788.84 122.704 788.84 134.129C788.84 145.767 786.356 156.092 781.389 165.104C776.421 174.188 769.396 181.213 760.312 186.181C751.3 191.148 740.975 193.632 729.337 193.632ZM751.797 157.973C757.616 151.941 760.525 143.993 760.525 134.129C760.525 124.336 757.616 116.424 751.797 110.392C745.907 104.289 738.42 101.237 729.337 101.237C720.254 101.237 712.767 104.289 706.877 110.392C701.058 116.424 698.148 124.336 698.148 134.129C698.148 143.993 701.058 151.941 706.877 157.973C712.767 164.076 720.254 167.127 729.337 167.127C738.42 167.127 745.907 164.076 751.797 157.973Z" fill="#EC6276"/>
<path d="M910.294 88.4639C918.526 97.6182 922.642 110.072 922.642 125.826V191.929H894.327V128.913C894.327 119.901 892.305 113.053 888.26 108.369C884.144 103.615 878.396 101.237 871.016 101.237C862.5 101.237 855.688 104.324 850.578 110.498C845.469 116.672 842.914 125.72 842.914 137.642V191.929H814.6V76.4355H839.827L842.701 90.3799C851.075 79.8773 862.394 74.626 876.657 74.626C890.779 74.626 901.991 79.2386 910.294 88.4639Z" fill="#EC6276"/>
<path d="M1030.79 185.648C1021.07 190.971 1010.39 193.632 998.75 193.632C985.977 193.632 976.006 190.19 968.839 183.307C961.601 176.423 957.981 167.021 957.981 155.099V101.45H939.46V76.4355H957.981V43.0117H986.296V76.4355H1027.49V101.45H986.296V150.947C986.296 161.734 991.547 167.127 1002.05 167.127C1008.44 167.127 1014.89 165.353 1021.42 161.805L1030.79 185.648Z" fill="#EC6276"/>
<path d="M1153.52 144.88H1071.35C1073.33 152.473 1077.13 158.54 1082.74 163.082C1088.2 167.482 1094.87 169.682 1102.75 169.682C1107.57 169.682 1112.54 168.617 1117.65 166.488C1122.83 164.359 1127.34 161.521 1131.17 157.973L1146.82 176.707C1141 182.171 1134.36 186.358 1126.91 189.268C1119.39 192.177 1111.33 193.632 1102.75 193.632C1090.97 193.632 1080.57 191.113 1071.56 186.074C1062.48 181.036 1055.38 173.975 1050.27 164.892C1045.16 155.808 1042.61 145.554 1042.61 134.129C1042.61 122.633 1045.02 112.343 1049.84 103.26C1054.67 94.1764 1061.34 87.151 1069.86 82.1836C1078.51 77.1452 1088.24 74.626 1099.02 74.626C1109.88 74.626 1119.49 77.0742 1127.87 81.9707C1136.38 86.9382 1142.95 93.6797 1147.56 102.195C1152.32 110.924 1154.69 120.788 1154.69 131.787C1154.69 135.477 1154.3 139.841 1153.52 144.88ZM1099.02 98.5762C1092.07 98.5762 1086.07 100.776 1081.03 105.176C1075.99 109.576 1072.69 115.465 1071.13 122.846H1126.48C1125.35 115.465 1122.3 109.576 1117.33 105.176C1112.36 100.776 1106.26 98.5762 1099.02 98.5762Z" fill="#EC6276"/>
<path d="M1183.54 159.25C1188.01 162.727 1192.66 165.317 1197.48 167.021C1202.52 168.795 1207.7 169.682 1213.02 169.682C1218.56 169.682 1222.75 168.866 1225.58 167.233C1228.57 165.53 1230.06 163.082 1230.06 159.889C1230.06 156.553 1228.46 153.928 1225.27 152.012C1222.36 150.238 1217.25 148.144 1209.94 145.731C1203.12 143.461 1196.99 140.977 1191.52 138.28C1186.63 135.868 1182.44 132.319 1178.96 127.636C1175.48 123.023 1173.75 116.991 1173.75 109.54C1173.75 99.2503 1177.72 90.8411 1185.67 84.3125C1193.47 77.8548 1203.83 74.626 1216.75 74.626C1231.87 74.626 1245.38 78.9902 1257.31 87.7188L1243.36 108.901C1234.56 102.018 1225.55 98.5762 1216.32 98.5762C1211.78 98.5762 1208.27 99.3923 1205.79 101.024C1203.3 102.657 1202.06 104.821 1202.06 107.518C1202.06 110.569 1203.55 112.946 1206.53 114.649C1209.44 116.282 1214.37 118.198 1221.33 120.397C1229.49 123.236 1235.77 125.755 1240.17 127.955C1245.21 130.439 1249.46 134.058 1252.94 138.812C1256.56 143.709 1258.37 149.989 1258.37 157.653C1258.37 164.75 1256.45 171.03 1252.62 176.494C1248.93 181.674 1243.54 185.861 1236.44 189.055C1229.63 192.106 1221.61 193.632 1212.39 193.632C1204.72 193.632 1197.27 192.674 1190.03 190.758C1183.08 188.913 1176.73 186.11 1170.98 182.349L1183.54 159.25Z" fill="#EC6276"/>
<path d="M1287.43 159.25C1291.9 162.727 1296.55 165.317 1301.37 167.021C1306.41 168.795 1311.59 169.682 1316.92 169.682C1322.45 169.682 1326.64 168.866 1329.48 167.233C1332.46 165.53 1333.95 163.082 1333.95 159.889C1333.95 156.553 1332.35 153.928 1329.16 152.012C1326.25 150.238 1321.14 148.144 1313.83 145.731C1307.02 143.461 1300.88 140.977 1295.41 138.28C1290.52 135.868 1286.33 132.319 1282.85 127.636C1279.38 123.023 1277.64 116.991 1277.64 109.54C1277.64 99.2503 1281.61 90.8411 1289.56 84.3125C1297.36 77.8548 1307.73 74.626 1320.64 74.626C1335.76 74.626 1349.27 78.9902 1361.2 87.7188L1347.25 108.901C1338.45 102.018 1329.44 98.5762 1320.21 98.5762C1315.67 98.5762 1312.16 99.3923 1309.68 101.024C1307.19 102.657 1305.95 104.821 1305.95 107.518C1305.95 110.569 1307.44 112.946 1310.42 114.649C1313.33 116.282 1318.26 118.198 1325.22 120.397C1333.38 123.236 1339.66 125.755 1344.06 127.955C1349.1 130.439 1353.35 134.058 1356.83 138.812C1360.45 143.709 1362.26 149.989 1362.26 157.653C1362.26 164.75 1360.34 171.03 1356.51 176.494C1352.82 181.674 1347.43 185.861 1340.33 189.055C1333.52 192.106 1325.5 193.632 1316.28 193.632C1308.61 193.632 1301.16 192.674 1293.92 190.758C1286.97 188.913 1280.62 186.11 1274.87 182.349L1287.43 159.25Z" fill="#EC6276"/>
<path d="M1440.18 193.632C1428.61 193.632 1418.36 191.113 1409.42 186.074C1400.47 181.036 1393.45 173.975 1388.34 164.892C1383.23 155.808 1380.68 145.554 1380.68 134.129C1380.68 122.562 1383.23 112.272 1388.34 103.26C1393.52 94.1055 1400.55 87.0801 1409.42 82.1836C1418.5 77.1452 1428.75 74.626 1440.18 74.626C1451.75 74.626 1462.04 77.1807 1471.05 82.29C1480.2 87.4704 1487.26 94.5312 1492.23 103.473C1497.2 112.485 1499.68 122.704 1499.68 134.129C1499.68 145.767 1497.2 156.092 1492.23 165.104C1487.26 174.188 1480.24 181.213 1471.15 186.181C1462.14 191.148 1451.82 193.632 1440.18 193.632ZM1462.64 157.973C1468.46 151.941 1471.37 143.993 1471.37 134.129C1471.37 124.336 1468.46 116.424 1462.64 110.392C1456.75 104.289 1449.26 101.237 1440.18 101.237C1431.1 101.237 1423.61 104.289 1417.72 110.392C1411.9 116.424 1408.99 124.336 1408.99 134.129C1408.99 143.993 1411.9 151.941 1417.72 157.973C1423.61 164.076 1431.1 167.127 1440.18 167.127C1449.26 167.127 1456.75 164.076 1462.64 157.973Z" fill="#EC6276"/>
<path d="M1593.46 75.4775V105.176C1589.13 103.686 1584.31 102.94 1578.98 102.94C1571.53 102.94 1565.43 105.318 1560.67 110.072C1556.06 114.685 1553.76 121.568 1553.76 130.723V191.929H1525.44V76.4355H1550.67L1553.12 88.7832C1557.59 83.8867 1562.31 80.3031 1567.27 78.0322C1572.24 75.7614 1577.6 74.626 1583.35 74.626C1587.04 74.626 1590.41 74.9098 1593.46 75.4775Z" fill="#EC6276"/>
<path d="M1642.96 76.4355V191.929H1614.64V76.4355H1642.96ZM1615.39 54.8271C1611.98 51.279 1610.28 46.8438 1610.28 41.5215C1610.28 35.9863 1611.98 31.5156 1615.39 28.1094C1618.79 24.7031 1623.26 23 1628.8 23C1634.12 23 1638.56 24.7031 1642.11 28.1094C1645.58 31.5156 1647.32 35.9863 1647.32 41.5215C1647.32 46.9147 1645.58 51.3499 1642.11 54.8271C1638.63 58.3044 1634.19 60.043 1628.8 60.043C1623.26 60.043 1618.79 58.3044 1615.39 54.8271Z" fill="#EC6276"/>
<path d="M481 253.222H544.229C556.008 253.222 566.121 255.315 574.565 259.502C583.01 263.689 589.61 269.756 594.364 277.704C599.048 285.581 601.39 294.842 601.39 305.486C601.39 316.202 599.048 325.498 594.364 333.375C589.61 341.394 583.01 347.497 574.565 351.684C565.979 355.941 555.867 358.07 544.229 358.07H510.485V403.629H481V253.222ZM541.567 330.182C551.076 330.182 558.528 327.982 563.921 323.582C569.243 319.182 571.904 313.15 571.904 305.486C571.904 297.68 569.243 291.648 563.921 287.391C558.67 283.204 551.218 281.11 541.567 281.11H510.485V330.182H541.567Z" fill="#EC6276"/>
<path d="M675.688 405.332C664.121 405.332 653.867 402.813 644.926 397.774C635.984 392.736 628.959 385.675 623.85 376.592C618.74 367.508 616.186 357.254 616.186 345.829C616.186 334.262 618.74 323.972 623.85 314.96C629.03 305.806 636.055 298.78 644.926 293.884C654.009 288.845 664.263 286.326 675.688 286.326C687.256 286.326 697.545 288.881 706.558 293.99C715.712 299.171 722.773 306.231 727.74 315.173C732.708 324.185 735.191 334.404 735.191 345.829C735.191 357.467 732.708 367.792 727.74 376.805C722.773 385.888 715.747 392.913 706.664 397.881C697.652 402.848 687.326 405.332 675.688 405.332ZM698.148 369.673C703.967 363.641 706.877 355.693 706.877 345.829C706.877 336.036 703.967 328.124 698.148 322.092C692.258 315.989 684.772 312.938 675.688 312.938C666.605 312.938 659.118 315.989 653.229 322.092C647.41 328.124 644.5 336.036 644.5 345.829C644.5 355.693 647.41 363.641 653.229 369.673C659.118 375.776 666.605 378.827 675.688 378.827C684.772 378.827 692.258 375.776 698.148 369.673Z" fill="#EC6276"/>
<path d="M800.336 357.645H789.266V403.629H760.951V238H789.266V332.311H799.271L835.463 288.136H872.293L825.031 344.339L876.87 403.629H838.976L800.336 357.645Z" fill="#EC6276"/>
<path d="M992.363 356.58H910.188C912.174 364.173 915.971 370.241 921.577 374.782C927.041 379.182 933.712 381.382 941.589 381.382C946.414 381.382 951.382 380.317 956.491 378.188C961.672 376.06 966.178 373.221 970.01 369.673L985.657 388.407C979.838 393.871 973.203 398.058 965.752 400.968C958.23 403.877 950.175 405.332 941.589 405.332C929.809 405.332 919.413 402.813 910.4 397.774C901.317 392.736 894.221 385.675 889.111 376.592C884.002 367.508 881.447 357.254 881.447 345.829C881.447 334.333 883.86 324.043 888.686 314.96C893.511 305.877 900.182 298.851 908.697 293.884C917.355 288.845 927.077 286.326 937.863 286.326C948.721 286.326 958.336 288.774 966.71 293.671C975.226 298.638 981.79 305.38 986.402 313.896C991.157 322.624 993.534 332.488 993.534 343.487C993.534 347.177 993.144 351.542 992.363 356.58ZM937.863 310.276C930.909 310.276 924.912 312.476 919.874 316.876C914.836 321.276 911.536 327.166 909.975 334.546H965.326C964.191 327.166 961.139 321.276 956.172 316.876C951.204 312.476 945.102 310.276 937.863 310.276Z" fill="#EC6276"/>
<path d="M1087.21 287.178V316.876C1082.88 315.386 1078.05 314.641 1072.73 314.641C1065.28 314.641 1059.18 317.018 1054.42 321.772C1049.81 326.385 1047.5 333.269 1047.5 342.423V403.629H1019.19V288.136H1044.42L1046.86 300.483C1051.33 295.587 1056.05 292.003 1061.02 289.732C1065.99 287.462 1071.35 286.326 1077.09 286.326C1080.78 286.326 1084.15 286.61 1087.21 287.178Z" fill="#EC6276"/>
</svg>
