<svg width="1565" height="376" viewBox="0 0 1565 376" fill="none" xmlns="http://www.w3.org/2000/svg">
<path d="M559.68 18.5215V168.929H530.407V60.7803L479.633 123.37H478.355L427.475 60.7803V168.929H398.309V18.5215H430.562L478.994 78.0244L527.32 18.5215H559.68Z" fill="white"/>
<path d="M646.646 170.632C635.078 170.632 624.824 168.113 615.883 163.074C606.941 158.036 599.916 150.975 594.807 141.892C589.697 132.808 587.143 122.554 587.143 111.129C587.143 99.5618 589.697 89.2721 594.807 80.2598C599.987 71.1055 607.012 64.0801 615.883 59.1836C624.966 54.1452 635.22 51.626 646.646 51.626C658.213 51.626 668.502 54.1807 677.515 59.29C686.669 64.4704 693.73 71.5312 698.697 80.4727C703.665 89.485 706.148 99.7038 706.148 111.129C706.148 122.767 703.665 133.092 698.697 142.104C693.73 151.188 686.704 158.213 677.621 163.181C668.609 168.148 658.284 170.632 646.646 170.632ZM669.105 134.973C674.924 128.941 677.834 120.993 677.834 111.129C677.834 101.336 674.924 93.4235 669.105 87.3916C663.215 81.2887 655.729 78.2373 646.646 78.2373C637.562 78.2373 630.076 81.2887 624.186 87.3916C618.367 93.4235 615.457 101.336 615.457 111.129C615.457 120.993 618.367 128.941 624.186 134.973C630.076 141.076 637.562 144.127 646.646 144.127C655.729 144.127 663.215 141.076 669.105 134.973Z" fill="white"/>
<path d="M827.603 65.4639C835.834 74.6182 839.95 87.0723 839.95 102.826V168.929H811.636V105.913C811.636 96.9007 809.613 90.0527 805.568 85.3691C801.452 80.6146 795.704 78.2373 788.324 78.2373C779.809 78.2373 772.996 81.3242 767.887 87.498C762.777 93.6719 760.223 102.72 760.223 114.642V168.929H731.908V53.4355H757.136L760.01 67.3799C768.383 56.8773 779.702 51.626 793.966 51.626C808.088 51.626 819.3 56.2386 827.603 65.4639Z" fill="white"/>
<path d="M948.099 162.648C938.377 167.971 927.697 170.632 916.059 170.632C903.285 170.632 893.315 167.19 886.147 160.307C878.909 153.423 875.29 144.021 875.29 132.099V78.4502H856.769V53.4355H875.29V20.0117H903.604V53.4355H944.799V78.4502H903.604V127.947C903.604 138.734 908.856 144.127 919.358 144.127C925.745 144.127 932.203 142.353 938.731 138.805L948.099 162.648Z" fill="white"/>
<path d="M1070.83 121.88H988.654C990.641 129.473 994.438 135.54 1000.04 140.082C1005.51 144.482 1012.18 146.682 1020.06 146.682C1024.88 146.682 1029.85 145.617 1034.96 143.488C1040.14 141.359 1044.64 138.521 1048.48 134.973L1064.12 153.707C1058.31 159.171 1051.67 163.358 1044.22 166.268C1036.7 169.177 1028.64 170.632 1020.06 170.632C1008.28 170.632 997.88 168.113 988.867 163.074C979.784 158.036 972.688 150.975 967.578 141.892C962.469 132.808 959.914 122.554 959.914 111.129C959.914 99.6328 962.327 89.3431 967.152 80.2598C971.978 71.1764 978.648 64.151 987.164 59.1836C995.822 54.1452 1005.54 51.626 1016.33 51.626C1027.19 51.626 1036.8 54.0742 1045.18 58.9707C1053.69 63.9382 1060.26 70.6797 1064.87 79.1953C1069.62 87.9238 1072 97.7878 1072 108.787C1072 112.477 1071.61 116.841 1070.83 121.88ZM1016.33 75.5762C1009.38 75.5762 1003.38 77.776 998.341 82.1758C993.302 86.5755 990.003 92.4655 988.441 99.8457H1043.79C1042.66 92.4655 1039.61 86.5755 1034.64 82.1758C1029.67 77.776 1023.57 75.5762 1016.33 75.5762Z" fill="white"/>
<path d="M1100.85 136.25C1105.32 139.727 1109.97 142.317 1114.79 144.021C1119.83 145.795 1125.01 146.682 1130.33 146.682C1135.87 146.682 1140.06 145.866 1142.89 144.233C1145.87 142.53 1147.36 140.082 1147.36 136.889C1147.36 133.553 1145.77 130.928 1142.57 129.012C1139.66 127.238 1134.56 125.144 1127.25 122.731C1120.43 120.461 1114.3 117.977 1108.83 115.28C1103.93 112.868 1099.75 109.319 1096.27 104.636C1092.79 100.023 1091.05 93.9912 1091.05 86.54C1091.05 76.2503 1095.03 67.8411 1102.98 61.3125C1110.78 54.8548 1121.14 51.626 1134.06 51.626C1149.17 51.626 1162.69 55.9902 1174.61 64.7188L1160.67 85.9014C1151.87 79.0179 1142.86 75.5762 1133.63 75.5762C1129.09 75.5762 1125.58 76.3923 1123.09 78.0244C1120.61 79.6566 1119.37 81.821 1119.37 84.5176C1119.37 87.569 1120.86 89.9463 1123.84 91.6494C1126.75 93.2816 1131.68 95.1976 1138.64 97.3975C1146.8 100.236 1153.08 102.755 1157.48 104.955C1162.51 107.439 1166.77 111.058 1170.25 115.812C1173.87 120.709 1175.68 126.989 1175.68 134.653C1175.68 141.75 1173.76 148.03 1169.93 153.494C1166.24 158.674 1160.85 162.861 1153.75 166.055C1146.94 169.106 1138.92 170.632 1129.69 170.632C1122.03 170.632 1114.58 169.674 1107.34 167.758C1100.39 165.913 1094.04 163.11 1088.29 159.349L1100.85 136.25Z" fill="white"/>
<path d="M1204.74 136.25C1209.21 139.727 1213.86 142.317 1218.68 144.021C1223.72 145.795 1228.9 146.682 1234.22 146.682C1239.76 146.682 1243.95 145.866 1246.78 144.233C1249.76 142.53 1251.25 140.082 1251.25 136.889C1251.25 133.553 1249.66 130.928 1246.46 129.012C1243.56 127.238 1238.45 125.144 1231.14 122.731C1224.32 120.461 1218.19 117.977 1212.72 115.28C1207.83 112.868 1203.64 109.319 1200.16 104.636C1196.68 100.023 1194.95 93.9912 1194.95 86.54C1194.95 76.2503 1198.92 67.8411 1206.87 61.3125C1214.67 54.8548 1225.03 51.626 1237.95 51.626C1253.06 51.626 1266.58 55.9902 1278.5 64.7188L1264.56 85.9014C1255.76 79.0179 1246.75 75.5762 1237.52 75.5762C1232.98 75.5762 1229.47 76.3923 1226.99 78.0244C1224.5 79.6566 1223.26 81.821 1223.26 84.5176C1223.26 87.569 1224.75 89.9463 1227.73 91.6494C1230.64 93.2816 1235.57 95.1976 1242.53 97.3975C1250.69 100.236 1256.97 102.755 1261.37 104.955C1266.41 107.439 1270.66 111.058 1274.14 115.812C1277.76 120.709 1279.57 126.989 1279.57 134.653C1279.57 141.75 1277.65 148.03 1273.82 153.494C1270.13 158.674 1264.74 162.861 1257.64 166.055C1250.83 169.106 1242.81 170.632 1233.58 170.632C1225.92 170.632 1218.47 169.674 1211.23 167.758C1204.28 165.913 1197.93 163.11 1192.18 159.349L1204.74 136.25Z" fill="white"/>
<path d="M1357.49 170.632C1345.92 170.632 1335.67 168.113 1326.72 163.074C1317.78 158.036 1310.76 150.975 1305.65 141.892C1300.54 132.808 1297.98 122.554 1297.98 111.129C1297.98 99.5618 1300.54 89.2721 1305.65 80.2598C1310.83 71.1055 1317.85 64.0801 1326.72 59.1836C1335.81 54.1452 1346.06 51.626 1357.49 51.626C1369.05 51.626 1379.34 54.1807 1388.36 59.29C1397.51 64.4704 1404.57 71.5312 1409.54 80.4727C1414.51 89.485 1416.99 99.7038 1416.99 111.129C1416.99 122.767 1414.51 133.092 1409.54 142.104C1404.57 151.188 1397.55 158.213 1388.46 163.181C1379.45 168.148 1369.13 170.632 1357.49 170.632ZM1379.95 134.973C1385.77 128.941 1388.68 120.993 1388.68 111.129C1388.68 101.336 1385.77 93.4235 1379.95 87.3916C1374.06 81.2887 1366.57 78.2373 1357.49 78.2373C1348.4 78.2373 1340.92 81.2887 1335.03 87.3916C1329.21 93.4235 1326.3 101.336 1326.3 111.129C1326.3 120.993 1329.21 128.941 1335.03 134.973C1340.92 141.076 1348.4 144.127 1357.49 144.127C1366.57 144.127 1374.06 141.076 1379.95 134.973Z" fill="white"/>
<path d="M1510.77 52.4775V82.1758C1506.44 80.6855 1501.61 79.9404 1496.29 79.9404C1488.84 79.9404 1482.74 82.3177 1477.98 87.0723C1473.37 91.6849 1471.06 98.5684 1471.06 107.723V168.929H1442.75V53.4355H1467.98L1470.43 65.7832C1474.9 60.8867 1479.62 57.3031 1484.58 55.0322C1489.55 52.7614 1494.91 51.626 1500.66 51.626C1504.35 51.626 1507.72 51.9098 1510.77 52.4775Z" fill="white"/>
<path d="M1560.27 53.4355V168.929H1531.95V53.4355H1560.27ZM1532.7 31.8271C1529.29 28.279 1527.59 23.8438 1527.59 18.5215C1527.59 12.9863 1529.29 8.51562 1532.7 5.10938C1536.1 1.70312 1540.57 0 1546.11 0C1551.43 0 1555.87 1.70312 1559.41 5.10938C1562.89 8.51562 1564.63 12.9863 1564.63 18.5215C1564.63 23.9147 1562.89 28.3499 1559.41 31.8271C1555.94 35.3044 1551.5 37.043 1546.11 37.043C1540.57 37.043 1536.1 35.3044 1532.7 31.8271Z" fill="white"/>
<path d="M398.309 223.521H461.537C473.317 223.521 483.429 225.615 491.874 229.802C500.319 233.989 506.918 240.056 511.673 248.004C516.356 255.881 518.698 265.142 518.698 275.786C518.698 286.502 516.356 295.798 511.673 303.675C506.918 311.694 500.319 317.797 491.874 321.983C483.287 326.241 473.175 328.37 461.537 328.37H427.794V373.929H398.309V223.521ZM458.876 300.481C468.385 300.481 475.836 298.282 481.229 293.882C486.552 289.482 489.213 283.45 489.213 275.786C489.213 267.98 486.552 261.948 481.229 257.69C475.978 253.504 468.527 251.41 458.876 251.41H427.794V300.481H458.876Z" fill="white"/>
<path d="M592.997 375.632C581.43 375.632 571.176 373.113 562.234 368.074C553.293 363.036 546.268 355.975 541.158 346.892C536.049 337.808 533.494 327.554 533.494 316.129C533.494 304.562 536.049 294.272 541.158 285.26C546.339 276.105 553.364 269.08 562.234 264.184C571.318 259.145 581.572 256.626 592.997 256.626C604.564 256.626 614.854 259.181 623.866 264.29C633.021 269.47 640.081 276.531 645.049 285.473C650.016 294.485 652.5 304.704 652.5 316.129C652.5 327.767 650.016 338.092 645.049 347.104C640.081 356.188 633.056 363.213 623.973 368.181C614.96 373.148 604.635 375.632 592.997 375.632ZM615.457 339.973C621.276 333.941 624.186 325.993 624.186 316.129C624.186 306.336 621.276 298.424 615.457 292.392C609.567 286.289 602.08 283.237 592.997 283.237C583.914 283.237 576.427 286.289 570.537 292.392C564.718 298.424 561.809 306.336 561.809 316.129C561.809 325.993 564.718 333.941 570.537 339.973C576.427 346.076 583.914 349.127 592.997 349.127C602.08 349.127 609.567 346.076 615.457 339.973Z" fill="white"/>
<path d="M717.645 327.944H706.574V373.929H678.26V208.3H706.574V302.61H716.58L752.771 258.436H789.602L742.34 314.639L794.179 373.929H756.284L717.645 327.944Z" fill="white"/>
<path d="M909.672 326.88H827.496C829.483 334.473 833.28 340.54 838.886 345.082C844.35 349.482 851.021 351.682 858.897 351.682C863.723 351.682 868.69 350.617 873.8 348.488C878.98 346.359 883.486 343.521 887.318 339.973L902.966 358.707C897.147 364.171 890.512 368.358 883.061 371.268C875.538 374.177 867.484 375.632 858.897 375.632C847.118 375.632 836.721 373.113 827.709 368.074C818.626 363.036 811.529 355.975 806.42 346.892C801.311 337.808 798.756 327.554 798.756 316.129C798.756 304.633 801.169 294.343 805.994 285.26C810.82 276.176 817.49 269.151 826.006 264.184C834.663 259.145 844.385 256.626 855.172 256.626C866.029 256.626 875.645 259.074 884.019 263.971C892.534 268.938 899.098 275.68 903.711 284.195C908.465 292.924 910.843 302.788 910.843 313.787C910.843 317.477 910.452 321.841 909.672 326.88ZM855.172 280.576C848.217 280.576 842.221 282.776 837.183 287.176C832.144 291.576 828.844 297.465 827.283 304.846H882.635C881.499 297.465 878.448 291.576 873.48 287.176C868.513 282.776 862.41 280.576 855.172 280.576Z" fill="white"/>
<path d="M1004.51 257.478V287.176C1000.19 285.686 995.36 284.94 990.038 284.94C982.587 284.94 976.484 287.318 971.729 292.072C967.117 296.685 964.811 303.568 964.811 312.723V373.929H936.496V258.436H961.724L964.172 270.783C968.643 265.887 973.362 262.303 978.329 260.032C983.297 257.761 988.654 256.626 994.402 256.626C998.092 256.626 1001.46 256.91 1004.51 257.478Z" fill="white"/>
<path d="M253.456 22.5784H52.0779C49.1131 22.5755 46.2673 23.7494 44.168 25.8419C42.0671 27.9358 40.8834 30.7757 40.8764 33.7406V342.262C40.8834 345.227 42.0671 348.067 44.168 350.161C46.2676 352.253 49.113 353.427 52.0779 353.424H253.478C256.443 353.427 259.289 352.253 261.388 350.161C263.489 348.067 264.672 345.227 264.68 342.262V33.7406C264.673 30.773 263.486 27.9286 261.381 25.8347C259.277 23.7422 256.427 22.5697 253.458 22.5782L253.456 22.5784ZM75.9896 107.727C75.9882 106.947 76.2967 106.2 76.8479 105.648C77.399 105.097 78.1466 104.789 78.9264 104.79H84.528V92.2167C80.5743 94.9361 75.792 96.1829 71.015 95.7411C68.405 95.5195 65.9282 94.4929 63.9284 92.8015C61.9285 91.1102 60.5036 88.8396 59.8516 86.3023C58.8867 79.8763 60.9553 73.3659 65.4532 68.6773C74.6183 58.9636 87.4653 41.2209 87.4653 41.2209C87.4653 41.2209 100.312 58.9636 109.477 68.6773C113.995 73.3559 116.079 79.8691 115.118 86.3023C114.453 88.8394 113.02 91.1087 111.014 92.7987C109.009 94.49 106.529 95.5166 103.916 95.741C99.1378 96.18 94.3584 94.9332 90.4032 92.2166V104.79H96.044H96.0426C97.6653 104.79 98.9808 106.104 98.9808 107.727C98.9808 109.349 97.6653 110.665 96.0426 110.665H78.9268C78.147 110.665 77.3994 110.356 76.8483 109.805C76.2971 109.254 75.9886 108.507 75.99 107.727L75.9896 107.727ZM160.474 219.354V237.018L175.28 251.04V254.879H130.196V251.06L145.002 237.038V219.374H145C142.504 223.978 138.706 227.746 134.081 230.205C129.455 232.663 124.207 233.705 118.994 233.199C113.618 232.749 108.517 230.635 104.399 227.154C100.278 223.673 97.3442 218.996 96.0018 213.772C91.7325 193.014 107.517 177.621 107.517 177.621C126.318 157.645 152.716 121.141 152.716 121.141C152.716 121.141 179.154 157.644 197.994 177.621C197.994 177.621 213.7 193.013 209.51 213.772C208.167 218.996 205.234 223.674 201.113 227.154C196.994 230.635 191.893 232.749 186.517 233.199C181.296 233.703 176.042 232.658 171.411 230.195C166.781 227.734 162.976 223.963 160.472 219.354L160.474 219.354ZM245.662 315.313H245.66C244.997 317.85 243.564 320.12 241.558 321.809C239.553 323.499 237.073 324.527 234.459 324.752C229.691 325.215 224.911 323.996 220.946 321.305V333.799H226.587C228.209 333.799 229.524 335.115 229.524 336.738C229.524 338.36 228.209 339.674 226.587 339.674H209.471C207.848 339.674 206.533 338.36 206.533 336.738C206.533 335.115 207.848 333.799 209.471 333.799H215.073V321.305H215.071C211.108 323.996 206.327 325.215 201.558 324.752C198.948 324.53 196.473 323.504 194.473 321.812C192.473 320.121 191.048 317.849 190.396 315.313C189.431 308.887 191.5 302.377 195.998 297.687C205.163 287.973 218.01 270.23 218.01 270.23C218.01 270.23 230.856 287.973 240.022 297.687C244.538 302.367 246.623 308.88 245.661 315.313L245.662 315.313Z" fill="white"/>
<path d="M0.944287 303.213L34.9811 190.803V325.186L8.38599 317.117C5.55299 316.263 3.17712 314.318 1.78048 311.71C0.385018 309.101 0.0834674 306.044 0.94461 303.214L0.944287 303.213Z" fill="white"/>
<path d="M157.885 16.7042H87.7372L90.4005 7.96967C91.2364 5.12404 93.1774 2.72993 95.7889 1.32467C98.4017 -0.0806237 101.469 -0.382141 104.305 0.488803L157.885 16.7042Z" fill="white"/>
<path d="M147.646 359.298H217.794L215.13 368.072C214.272 370.909 212.318 373.289 209.703 374.685C207.087 376.081 204.023 376.379 201.187 375.514L147.646 359.298Z" fill="white"/>
<path d="M304.536 72.7922L270.539 185.084V50.8193L297.095 58.8879C299.928 59.742 302.304 61.6873 303.7 64.2957C305.096 66.9043 305.397 69.9619 304.536 72.7922Z" fill="white"/>
</svg>
