<svg width="1519" height="376" viewBox="0 0 1519 376" fill="none" xmlns="http://www.w3.org/2000/svg">
<path d="M513.68 18.5215V168.929H484.407V60.7803L433.633 123.37H432.355L381.475 60.7803V168.929H352.309V18.5215H384.562L432.994 78.0244L481.32 18.5215H513.68Z" fill="white"/>
<path d="M600.646 170.632C589.078 170.632 578.824 168.113 569.883 163.074C560.941 158.036 553.916 150.975 548.807 141.892C543.697 132.808 541.143 122.554 541.143 111.129C541.143 99.5618 543.697 89.2721 548.807 80.2598C553.987 71.1055 561.012 64.0801 569.883 59.1836C578.966 54.1452 589.22 51.626 600.646 51.626C612.213 51.626 622.502 54.1807 631.515 59.29C640.669 64.4704 647.73 71.5312 652.697 80.4727C657.665 89.485 660.148 99.7038 660.148 111.129C660.148 122.767 657.665 133.092 652.697 142.104C647.73 151.188 640.704 158.213 631.621 163.181C622.609 168.148 612.284 170.632 600.646 170.632ZM623.105 134.973C628.924 128.941 631.834 120.993 631.834 111.129C631.834 101.336 628.924 93.4235 623.105 87.3916C617.215 81.2887 609.729 78.2373 600.646 78.2373C591.562 78.2373 584.076 81.2887 578.186 87.3916C572.367 93.4235 569.457 101.336 569.457 111.129C569.457 120.993 572.367 128.941 578.186 134.973C584.076 141.076 591.562 144.127 600.646 144.127C609.729 144.127 617.215 141.076 623.105 134.973Z" fill="white"/>
<path d="M781.603 65.4639C789.834 74.6182 793.95 87.0723 793.95 102.826V168.929H765.636V105.913C765.636 96.9007 763.613 90.0527 759.568 85.3691C755.452 80.6146 749.704 78.2373 742.324 78.2373C733.809 78.2373 726.996 81.3242 721.887 87.498C716.777 93.6719 714.223 102.72 714.223 114.642V168.929H685.908V53.4355H711.136L714.01 67.3799C722.383 56.8773 733.702 51.626 747.966 51.626C762.088 51.626 773.3 56.2386 781.603 65.4639Z" fill="white"/>
<path d="M902.099 162.648C892.377 167.971 881.697 170.632 870.059 170.632C857.285 170.632 847.315 167.19 840.147 160.307C832.909 153.423 829.29 144.021 829.29 132.099V78.4502H810.769V53.4355H829.29V20.0117H857.604V53.4355H898.799V78.4502H857.604V127.947C857.604 138.734 862.856 144.127 873.358 144.127C879.745 144.127 886.203 142.353 892.731 138.805L902.099 162.648Z" fill="white"/>
<path d="M1024.83 121.88H942.654C944.641 129.473 948.438 135.54 954.044 140.082C959.508 144.482 966.179 146.682 974.056 146.682C978.881 146.682 983.849 145.617 988.958 143.488C994.138 141.359 998.645 138.521 1002.48 134.973L1018.12 153.707C1012.31 159.171 1005.67 163.358 998.219 166.268C990.697 169.177 982.642 170.632 974.056 170.632C962.276 170.632 951.88 168.113 942.867 163.074C933.784 158.036 926.688 150.975 921.578 141.892C916.469 132.808 913.914 122.554 913.914 111.129C913.914 99.6328 916.327 89.3431 921.152 80.2598C925.978 71.1764 932.648 64.151 941.164 59.1836C949.822 54.1452 959.544 51.626 970.33 51.626C981.188 51.626 990.803 54.0742 999.177 58.9707C1007.69 63.9382 1014.26 70.6797 1018.87 79.1953C1023.62 87.9238 1026 97.7878 1026 108.787C1026 112.477 1025.61 116.841 1024.83 121.88ZM970.33 75.5762C963.376 75.5762 957.379 77.776 952.341 82.1758C947.302 86.5755 944.003 92.4655 942.441 99.8457H997.793C996.658 92.4655 993.606 86.5755 988.639 82.1758C983.671 77.776 977.568 75.5762 970.33 75.5762Z" fill="white"/>
<path d="M1054.85 136.25C1059.32 139.727 1063.97 142.317 1068.79 144.021C1073.83 145.795 1079.01 146.682 1084.33 146.682C1089.87 146.682 1094.06 145.866 1096.89 144.233C1099.87 142.53 1101.36 140.082 1101.36 136.889C1101.36 133.553 1099.77 130.928 1096.57 129.012C1093.66 127.238 1088.56 125.144 1081.25 122.731C1074.43 120.461 1068.3 117.977 1062.83 115.28C1057.93 112.868 1053.75 109.319 1050.27 104.636C1046.79 100.023 1045.05 93.9912 1045.05 86.54C1045.05 76.2503 1049.03 67.8411 1056.98 61.3125C1064.78 54.8548 1075.14 51.626 1088.06 51.626C1103.17 51.626 1116.69 55.9902 1128.61 64.7188L1114.67 85.9014C1105.87 79.0179 1096.86 75.5762 1087.63 75.5762C1083.09 75.5762 1079.58 76.3923 1077.09 78.0244C1074.61 79.6566 1073.37 81.821 1073.37 84.5176C1073.37 87.569 1074.86 89.9463 1077.84 91.6494C1080.75 93.2816 1085.68 95.1976 1092.64 97.3975C1100.8 100.236 1107.08 102.755 1111.48 104.955C1116.51 107.439 1120.77 111.058 1124.25 115.812C1127.87 120.709 1129.68 126.989 1129.68 134.653C1129.68 141.75 1127.76 148.03 1123.93 153.494C1120.24 158.674 1114.85 162.861 1107.75 166.055C1100.94 169.106 1092.92 170.632 1083.69 170.632C1076.03 170.632 1068.58 169.674 1061.34 167.758C1054.39 165.913 1048.04 163.11 1042.29 159.349L1054.85 136.25Z" fill="white"/>
<path d="M1158.74 136.25C1163.21 139.727 1167.86 142.317 1172.68 144.021C1177.72 145.795 1182.9 146.682 1188.22 146.682C1193.76 146.682 1197.95 145.866 1200.78 144.233C1203.76 142.53 1205.25 140.082 1205.25 136.889C1205.25 133.553 1203.66 130.928 1200.46 129.012C1197.56 127.238 1192.45 125.144 1185.14 122.731C1178.32 120.461 1172.19 117.977 1166.72 115.28C1161.83 112.868 1157.64 109.319 1154.16 104.636C1150.68 100.023 1148.95 93.9912 1148.95 86.54C1148.95 76.2503 1152.92 67.8411 1160.87 61.3125C1168.67 54.8548 1179.03 51.626 1191.95 51.626C1207.06 51.626 1220.58 55.9902 1232.5 64.7188L1218.56 85.9014C1209.76 79.0179 1200.75 75.5762 1191.52 75.5762C1186.98 75.5762 1183.47 76.3923 1180.99 78.0244C1178.5 79.6566 1177.26 81.821 1177.26 84.5176C1177.26 87.569 1178.75 89.9463 1181.73 91.6494C1184.64 93.2816 1189.57 95.1976 1196.53 97.3975C1204.69 100.236 1210.97 102.755 1215.37 104.955C1220.41 107.439 1224.66 111.058 1228.14 115.812C1231.76 120.709 1233.57 126.989 1233.57 134.653C1233.57 141.75 1231.65 148.03 1227.82 153.494C1224.13 158.674 1218.74 162.861 1211.64 166.055C1204.83 169.106 1196.81 170.632 1187.58 170.632C1179.92 170.632 1172.47 169.674 1165.23 167.758C1158.28 165.913 1151.93 163.11 1146.18 159.349L1158.74 136.25Z" fill="white"/>
<path d="M1311.49 170.632C1299.92 170.632 1289.67 168.113 1280.72 163.074C1271.78 158.036 1264.76 150.975 1259.65 141.892C1254.54 132.808 1251.98 122.554 1251.98 111.129C1251.98 99.5618 1254.54 89.2721 1259.65 80.2598C1264.83 71.1055 1271.85 64.0801 1280.72 59.1836C1289.81 54.1452 1300.06 51.626 1311.49 51.626C1323.05 51.626 1333.34 54.1807 1342.36 59.29C1351.51 64.4704 1358.57 71.5312 1363.54 80.4727C1368.51 89.485 1370.99 99.7038 1370.99 111.129C1370.99 122.767 1368.51 133.092 1363.54 142.104C1358.57 151.188 1351.55 158.213 1342.46 163.181C1333.45 168.148 1323.13 170.632 1311.49 170.632ZM1333.95 134.973C1339.77 128.941 1342.68 120.993 1342.68 111.129C1342.68 101.336 1339.77 93.4235 1333.95 87.3916C1328.06 81.2887 1320.57 78.2373 1311.49 78.2373C1302.4 78.2373 1294.92 81.2887 1289.03 87.3916C1283.21 93.4235 1280.3 101.336 1280.3 111.129C1280.3 120.993 1283.21 128.941 1289.03 134.973C1294.92 141.076 1302.4 144.127 1311.49 144.127C1320.57 144.127 1328.06 141.076 1333.95 134.973Z" fill="white"/>
<path d="M1464.77 52.4775V82.1758C1460.44 80.6855 1455.61 79.9404 1450.29 79.9404C1442.84 79.9404 1436.74 82.3177 1431.98 87.0723C1427.37 91.6849 1425.06 98.5684 1425.06 107.723V168.929H1396.75V53.4355H1421.98L1424.43 65.7832C1428.9 60.8867 1433.62 57.3031 1438.58 55.0322C1443.55 52.7614 1448.91 51.626 1454.66 51.626C1458.35 51.626 1461.72 51.9098 1464.77 52.4775Z" fill="white"/>
<path d="M1514.27 53.4355V168.929H1485.95V53.4355H1514.27ZM1486.7 31.8271C1483.29 28.279 1481.59 23.8438 1481.59 18.5215C1481.59 12.9863 1483.29 8.51562 1486.7 5.10938C1490.1 1.70312 1494.57 0 1500.11 0C1505.43 0 1509.87 1.70312 1513.41 5.10938C1516.89 8.51562 1518.63 12.9863 1518.63 18.5215C1518.63 23.9147 1516.89 28.3499 1513.41 31.8271C1509.94 35.3044 1505.5 37.043 1500.11 37.043C1494.57 37.043 1490.1 35.3044 1486.7 31.8271Z" fill="white"/>
<path d="M352.309 223.521H415.537C427.317 223.521 437.429 225.615 445.874 229.802C454.319 233.989 460.918 240.056 465.673 248.004C470.356 255.881 472.698 265.142 472.698 275.786C472.698 286.502 470.356 295.798 465.673 303.675C460.918 311.694 454.319 317.797 445.874 321.983C437.287 326.241 427.175 328.37 415.537 328.37H381.794V373.929H352.309V223.521ZM412.876 300.481C422.385 300.481 429.836 298.282 435.229 293.882C440.552 289.482 443.213 283.45 443.213 275.786C443.213 267.98 440.552 261.948 435.229 257.69C429.978 253.504 422.527 251.41 412.876 251.41H381.794V300.481H412.876Z" fill="white"/>
<path d="M546.997 375.632C535.43 375.632 525.176 373.113 516.234 368.074C507.293 363.036 500.268 355.975 495.158 346.892C490.049 337.808 487.494 327.554 487.494 316.129C487.494 304.562 490.049 294.272 495.158 285.26C500.339 276.105 507.364 269.08 516.234 264.184C525.318 259.145 535.572 256.626 546.997 256.626C558.564 256.626 568.854 259.181 577.866 264.29C587.021 269.47 594.081 276.531 599.049 285.473C604.016 294.485 606.5 304.704 606.5 316.129C606.5 327.767 604.016 338.092 599.049 347.104C594.081 356.188 587.056 363.213 577.973 368.181C568.96 373.148 558.635 375.632 546.997 375.632ZM569.457 339.973C575.276 333.941 578.186 325.993 578.186 316.129C578.186 306.336 575.276 298.424 569.457 292.392C563.567 286.289 556.08 283.237 546.997 283.237C537.914 283.237 530.427 286.289 524.537 292.392C518.718 298.424 515.809 306.336 515.809 316.129C515.809 325.993 518.718 333.941 524.537 339.973C530.427 346.076 537.914 349.127 546.997 349.127C556.08 349.127 563.567 346.076 569.457 339.973Z" fill="white"/>
<path d="M671.645 327.944H660.574V373.929H632.26V208.3H660.574V302.61H670.58L706.771 258.436H743.602L696.34 314.639L748.179 373.929H710.284L671.645 327.944Z" fill="white"/>
<path d="M863.672 326.88H781.496C783.483 334.473 787.28 340.54 792.886 345.082C798.35 349.482 805.021 351.682 812.897 351.682C817.723 351.682 822.69 350.617 827.8 348.488C832.98 346.359 837.486 343.521 841.318 339.973L856.966 358.707C851.147 364.171 844.512 368.358 837.061 371.268C829.538 374.177 821.484 375.632 812.897 375.632C801.118 375.632 790.721 373.113 781.709 368.074C772.626 363.036 765.529 355.975 760.42 346.892C755.311 337.808 752.756 327.554 752.756 316.129C752.756 304.633 755.169 294.343 759.994 285.26C764.82 276.176 771.49 269.151 780.006 264.184C788.663 259.145 798.385 256.626 809.172 256.626C820.029 256.626 829.645 259.074 838.019 263.971C846.534 268.938 853.098 275.68 857.711 284.195C862.465 292.924 864.843 302.788 864.843 313.787C864.843 317.477 864.452 321.841 863.672 326.88ZM809.172 280.576C802.217 280.576 796.221 282.776 791.183 287.176C786.144 291.576 782.844 297.465 781.283 304.846H836.635C835.499 297.465 832.448 291.576 827.48 287.176C822.513 282.776 816.41 280.576 809.172 280.576Z" fill="white"/>
<path d="M958.515 257.478V287.176C954.186 285.686 949.36 284.94 944.038 284.94C936.587 284.94 930.484 287.318 925.729 292.072C921.117 296.685 918.811 303.568 918.811 312.723V373.929H890.496V258.436H915.724L918.172 270.783C922.643 265.887 927.362 262.303 932.329 260.032C937.297 257.761 942.654 256.626 948.402 256.626C952.092 256.626 955.463 256.91 958.515 257.478Z" fill="white"/>
<path d="M91.8627 135.222C90.2327 133.593 87.3814 133.593 85.3443 135.222L46.6392 173.928C36.4536 184.113 36.4536 201.224 46.6392 211.41C51.9363 216.708 58.4548 219.152 65.3803 219.152C70.2687 219.152 75.1587 217.929 79.64 215.078L69.8616 237.079C69.0473 239.116 70.2687 241.153 72.713 241.153H104.493C106.53 241.153 108.16 239.116 107.344 237.079L97.5655 215.078C102.047 217.929 106.937 219.152 111.825 219.152C118.751 219.152 125.678 216.3 130.973 211.003C140.752 200.411 140.345 183.707 130.159 173.521L91.8627 135.222Z" fill="#E5E5E5"/>
<path d="M256.878 6H81.4492C77.9903 6 75.1842 8.80102 75.1842 12.265V43.5921H43.8571C40.3982 43.5921 37.5921 46.3931 37.5921 49.8571V81.1842H6.26499C2.80611 81.1842 0 83.9852 0 87.4492V363.122C0 366.586 2.80615 369.387 6.26499 369.387H181.693C185.152 369.387 187.958 366.586 187.958 363.122V331.795H219.285C222.744 331.795 225.55 328.994 225.55 325.53V294.202H256.878C260.336 294.202 263.143 291.401 263.143 287.938V12.265C263.143 8.80097 260.336 6 256.878 6ZM175.431 356.857H12.5322V93.7142H175.431V356.857ZM213.023 319.265H187.961V87.4492C187.961 83.9852 185.154 81.1842 181.696 81.1842H50.1243V56.1221H213.023V319.265ZM250.615 281.673H225.553V49.8571C225.553 46.3931 222.746 43.5921 219.288 43.5921H87.7164V18.53H250.615V281.673Z" fill="white"/>
</svg>
